<?xml version="1.0" encoding="UTF-8"?>
<svg width="24px" height="24px" viewBox="0 0 24 24" version="1.1" xmlns="http://www.w3.org/2000/svg" xmlns:xlink="http://www.w3.org/1999/xlink">
    <title>画板</title>
    <g id="画板" stroke="none" stroke-width="1" fill="none" fill-rule="evenodd">
        <g id="编组备份" transform="translate(2.1302, 0.9941)" stroke="#4088FF" stroke-width="2.06239878">
            <path d="M0,13.3078007 L0,0 L9.96101813,0 C13.6286192,0 16.6016969,2.97899708 16.6016969,6.65390037 L16.6016969,6.65390037 C16.6016969,8.78876989 15.5982674,10.6889173 14.0381659,11.9064664 L10.5907377,14.9037043 L16.143719,14.9037043" id="Stroke-1"></path>
            <path d="M14.4263021,11.3575196 C17.3350339,11.3575196 19.6930473,13.7202278 19.6930473,16.6347509 L19.6930473,16.6347509 C19.6930473,19.549274 17.3350339,21.9119822 14.4263021,21.9119822 L0,21.9119822 L0,11.3575196" id="Stroke-3"></path>
            <path d="M2.86236153,3.4416726 L10.0553616,3.49823076 C11.5749321,3.51016189 12.8747877,4.66507249 12.991343,6.18319428 C12.9951214,6.2324102 12.9978692,6.28185556 12.9993576,6.33153037 L12.9993576,6.33153037 C13.03279,7.376078 12.5712629,8.37496612 11.7550318,9.02544224 L6.86966768,13.3078007 C4.00730614,15.7169716 3.84220513,16.1869893 3.5493283,18.2408648 L3.5493283,18.2408648 L16.143719,18.2408648" id="Stroke-5"></path>
            <path d="M2.86236153,6.99806763 L9.19069939,6.99806763 C9.21600267,6.99806763 9.22733762,7.02984574 9.20775907,7.04590688 L3.83922828,11.3902155 C3.06856606,12.0564086 2.39007188,12.8164446 1.81782856,13.6496735 C0.959807069,14.8991154 0.434048503,16.3473713 0.234484657,17.8508086 L0,19.6175338" id="Stroke-7"></path>
        </g>
    </g>
</svg>