<?xml version="1.0" encoding="UTF-8"?>
<svg width="125px" height="28px" viewBox="0 0 125 28" version="1.1" xmlns="http://www.w3.org/2000/svg" xmlns:xlink="http://www.w3.org/1999/xlink">
    <title>画板备份 5</title>
    <g id="画板备份-5" stroke="none" stroke-width="1" fill="none" fill-rule="evenodd">
        <g id="logo/黑B2">
            <rect id="矩形" x="0" y="0" width="125" height="28"></rect>
            <g id="编组-2" transform="translate(1.7606, 1.75)">
                <g id="编组" stroke="#4088FF" stroke-width="2.05357644">
                    <path d="M0,13.2014161 L0,0 L9.98389704,0 C13.659922,0 16.6398284,2.95518251 16.6398284,6.60070804 L16.6398284,6.60070804 C16.6398284,8.71851108 15.6340942,10.6034684 14.0704094,11.8112842 L10.6150629,14.7845618 L16.1807987,14.7845618" id="Stroke-1"></path>
                    <path d="M14.4594371,11.2667258 C17.3748498,11.2667258 19.7382792,13.6105462 19.7382792,16.5017701 L19.7382792,16.5017701 C19.7382792,19.392994 17.3748498,21.7368144 14.4594371,21.7368144 L0,21.7368144 L0,11.2667258" id="Stroke-3"></path>
                    <path d="M2.86893593,3.41415933 L10.0784572,3.47026535 C11.6015179,3.4821011 12.9043591,4.62777917 13.0211821,6.13376485 C13.0249691,6.18258733 13.0277233,6.23163742 13.0292152,6.28091512 L13.0292152,6.28091512 C13.0627243,7.31711247 12.6001371,8.30801532 11.7820313,8.95329143 L6.88544624,13.2014161 C4.0165103,15.5913276 3.85103008,16.057588 3.55748056,18.0950445 L3.55748056,18.0950445 L16.1807987,18.0950445" id="Stroke-5"></path>
                    <path d="M2.86893593,6.94212397 L9.21180901,6.94212397 C9.2371704,6.94212397 9.24853139,6.97364805 9.22890786,6.98958079 L3.84804639,11.2991603 C3.07561408,11.9600277 2.3955615,12.7139879 1.82200383,13.5405559 C0.962011597,14.7800096 0.435045445,16.2166878 0.235023232,17.7081064 L0,19.4607082" id="Stroke-7"></path>
                </g>
                <g id="编组-2备份-3" transform="translate(57.1541, 5.6403)">
                    <ellipse id="椭圆形" stroke="#FFFFFF" stroke-width="3.1855623" cx="6.95281851" cy="7.74258579" rx="5.36003736" ry="5.29872953"></ellipse>
                    <ellipse id="椭圆形备份-10" stroke="#FFFFFF" stroke-width="3.1855623" cx="31.2876833" cy="7.74258579" rx="5.36003736" ry="5.29872953"></ellipse>
                    <rect id="矩形" fill="#FFFFFF" x="0" y="5.99133584" width="3.20426611" height="14.6183255" rx="1.60213305"></rect>
                    <path d="M17.1413234,13.0482233 L17.1413234,8.28796547 C17.1413234,5.01983394 19.7906675,2.37048987 23.058799,2.37048987 L23.058799,2.37048987 L23.058799,2.37048987" id="路径-26" stroke="#FFFFFF" stroke-width="3.1855623" stroke-linecap="round"></path>
                    <path d="M45.9028946,-0.901366118 C46.7755669,-0.905095958 47.4860312,-0.200678956 47.489761,0.671993292 C47.4897805,0.676562745 47.4897802,0.681132262 47.4897601,0.685701713 L47.428959,14.4992662 C47.4250746,15.3817698 46.7105665,16.0961868 45.8280624,16.0999587 C44.9553902,16.1036885 44.2449259,15.3992715 44.241196,14.5265993 C44.2411765,14.5220298 44.2411768,14.5174603 44.2411969,14.5128908 L44.3019981,0.699326351 C44.3058825,-0.183177284 45.0203905,-0.897594255 45.9028946,-0.901366118 Z" id="矩形备份-22" fill="#FFFFFF" transform="translate(45.8655, 7.5993) rotate(39) translate(-45.8655, -7.5993)"></path>
                    <path d="M45.9028946,-0.901366118 C46.7755669,-0.905095958 47.4860312,-0.200678956 47.489761,0.671993292 C47.4897805,0.676562745 47.4897802,0.681132262 47.4897601,0.685701713 L47.428959,14.4992662 C47.4250746,15.3817698 46.7105665,16.0961868 45.8280624,16.0999587 C44.9553902,16.1036885 44.2449259,15.3992715 44.241196,14.5265993 C44.2411765,14.5220298 44.2411768,14.5174603 44.2411969,14.5128908 L44.3019981,0.699326351 C44.3058825,-0.183177284 45.0203905,-0.897594255 45.9028946,-0.901366118 Z" id="矩形备份-22" fill="#FFFFFF" transform="translate(45.8655, 7.5993) scale(-1, 1) rotate(39) translate(-45.8655, -7.5993)"></path>
                    <path d="M63.4444689,2.33062413 L63.4444689,8.97454713 C63.4444689,11.2023591 61.4340654,13.0083575 58.9541069,13.0083575 C56.4741485,13.0083575 54.463745,11.2023591 54.463745,8.97454713 L54.463745,2.33062413 L54.463745,2.33062413" id="路径" stroke="#FFFFFF" stroke-width="3.1855623" stroke-linecap="round"></path>
                    <path d="M63.4444689,9.4143453 C63.4444689,8.65570258 63.4444689,8.30633325 63.4444689,8.3662373 C63.4444689,9.61235225 63.4444689,11.9207501 63.4444689,15.2914308 C63.4444689,17.2621101 61.4437788,18.8596613 58.9758024,18.8596613 C56.8847201,18.8596613 55.1290997,17.712789 54.641652,16.1638139" id="形状" stroke="#FFFFFF" stroke-width="3.1855623" stroke-linecap="round"></path>
                </g>
                <path d="M52.7596622,18.6876881 C52.7596622,18.6876881 49.2785872,18.6876881 42.3164373,18.6876881 C48.4686282,13.1214449 51.5447236,9.37207953 51.5447236,7.43959187 C51.5447236,4.54086038 49.4789014,2.92531976 46.9305804,2.92531976 C44.5930124,2.92531976 42.6614353,4.62595006 42.3579306,6.83158068" id="路径" stroke="#FFFFFF" stroke-width="3.1855623" stroke-linecap="round" stroke-linejoin="round"></path>
                <path d="M33.2261898,3.11423502 C34.2957449,3.11423502 35.2640452,3.54775785 35.9649568,4.24866945 C36.6658684,4.94958105 37.0993913,5.9178814 37.0993913,6.98743644 C37.0993913,8.05699148 36.6658684,9.02529183 35.9649568,9.72620343 C35.2640452,10.427115 34.2957449,10.8606379 33.2261898,10.8606379 L26.8155006,10.8606379 L26.8155006,3.81505872 C26.8155006,3.6215316 26.8939429,3.44632568 27.0207671,3.31950153 C27.1475912,3.19267738 27.3227972,3.11423502 27.5163243,3.11423502 Z" id="矩形" stroke="#FFFFFF" stroke-width="3.1855623"></path>
                <path d="M34.2400196,10.8683033 C35.3095747,10.8683033 36.277875,11.3018262 36.9787866,12.0027377 C37.6796982,12.7036493 38.1132211,13.6719497 38.1132211,14.7415047 C38.1132211,15.8110598 37.6796982,16.7793601 36.9787866,17.4802717 C36.277875,18.1811833 35.3095747,18.6147062 34.2400196,18.6147062 L27.5163243,18.6147062 C27.3227972,18.6147062 27.1475912,18.5362638 27.0207671,18.4094396 C26.8939429,18.2826155 26.8155006,18.1074096 26.8155006,17.9138825 L26.8155006,10.8683033 Z" id="矩形" stroke="#FFFFFF" stroke-width="3.1855623"></path>
            </g>
        </g>
    </g>
</svg>