<?xml version="1.0" encoding="UTF-8"?>
<svg width="125px" height="28px" viewBox="0 0 125 28" version="1.1" xmlns="http://www.w3.org/2000/svg" xmlns:xlink="http://www.w3.org/1999/xlink">
    <title>画板备份 6</title>
    <g id="画板备份-6" stroke="none" stroke-width="1" fill="none" fill-rule="evenodd">
        <g id="编组">
            <rect id="矩形" x="0" y="0" width="125" height="28"></rect>
            <path d="M1.76056338,14.9514161 L1.76056338,1.75 L11.7444604,1.75 C15.4204854,1.75 18.4003918,4.70518251 18.4003918,8.35070804 L18.4003918,8.35070804 C18.4003918,10.4685111 17.3946576,12.3534684 15.8309728,13.5612842 L12.3756263,16.5345618 L17.941362,16.5345618" id="Stroke-1" stroke="#4088FF" stroke-width="2.05357644"></path>
            <path d="M16.2200005,13.0167258 C19.1354132,13.0167258 21.4988426,15.3605462 21.4988426,18.2517701 L21.4988426,18.2517701 C21.4988426,21.142994 19.1354132,23.4868144 16.2200005,23.4868144 L1.76056338,23.4868144 L1.76056338,13.0167258" id="Stroke-3" stroke="#4088FF" stroke-width="2.05357644"></path>
            <path d="M4.62949931,5.16415933 L11.8390206,5.22026535 C13.3620813,5.2321011 14.6649224,6.37777917 14.7817455,7.88376485 C14.7855325,7.93258733 14.7882867,7.98163742 14.7897785,8.03091512 L14.7897785,8.03091512 C14.8232877,9.06711247 14.3607005,10.0580153 13.5425947,10.7032914 L8.64600962,14.9514161 C5.77707369,17.3413276 5.61159346,17.807588 5.31804394,19.8450445 L5.31804394,19.8450445 L17.941362,19.8450445" id="Stroke-5" stroke="#4088FF" stroke-width="2.05357644"></path>
            <path d="M4.62949931,8.69212397 L10.9723724,8.69212397 C10.9977338,8.69212397 11.0090948,8.72364805 10.9894712,8.73958079 L5.60860977,13.0491603 C4.83617746,13.7100277 4.15612488,14.4639879 3.58256721,15.2905559 C2.72257498,16.5300096 2.19560883,17.9666878 1.99558661,19.4581064 L1.76056338,21.2107082" id="Stroke-7" stroke="#4088FF" stroke-width="2.05357644"></path>
            <ellipse id="椭圆形" stroke="#16191C" stroke-width="3.1855623" cx="65.8675045" cy="15.1329245" rx="5.36003736" ry="5.29872953"></ellipse>
            <ellipse id="椭圆形备份-10" stroke="#16191C" stroke-width="3.1855623" cx="90.2023693" cy="15.1329245" rx="5.36003736" ry="5.29872953"></ellipse>
            <rect id="矩形" fill="#16191C" x="58.914686" y="13.3816745" width="3.20426611" height="14.6183255" rx="1.60213305"></rect>
            <path d="M76.0560094,20.4385619 L76.0560094,15.6783041 C76.0560094,12.4101726 78.7053535,9.76082854 81.973485,9.76082854 L81.973485,9.76082854 L81.973485,9.76082854" id="路径-26" stroke="#16191C" stroke-width="3.1855623" stroke-linecap="round"></path>
            <path d="M104.817581,6.48897256 C105.690253,6.48524272 106.400717,7.18965972 106.404447,8.06233197 C106.404467,8.06690142 106.404466,8.07147094 106.404446,8.07604039 L106.343645,21.8896049 C106.339761,22.7721085 105.625253,23.4865255 104.742748,23.4902973 C103.870076,23.4940272 103.159612,22.7896102 103.155882,21.9169379 C103.155863,21.9123685 103.155863,21.907799 103.155883,21.9032295 L103.216684,8.08966503 C103.220568,7.20716139 103.935077,6.49274442 104.817581,6.48897256 Z" id="矩形备份-22" fill="#16191C" transform="translate(104.7802, 14.9896) rotate(39) translate(-104.7802, -14.9896)"></path>
            <path d="M104.817581,6.48897256 C105.690253,6.48524272 106.400717,7.18965972 106.404447,8.06233197 C106.404467,8.06690142 106.404466,8.07147094 106.404446,8.07604039 L106.343645,21.8896049 C106.339761,22.7721085 105.625253,23.4865255 104.742748,23.4902973 C103.870076,23.4940272 103.159612,22.7896102 103.155882,21.9169379 C103.155863,21.9123685 103.155863,21.907799 103.155883,21.9032295 L103.216684,8.08966503 C103.220568,7.20716139 103.935077,6.49274442 104.817581,6.48897256 Z" id="矩形备份-22" fill="#16191C" transform="translate(104.7802, 14.9896) scale(-1, 1) rotate(39) translate(-104.7802, -14.9896)"></path>
            <path d="M122.359155,9.72096281 L122.359155,16.3648858 C122.359155,18.5926978 120.348751,20.3986962 117.868793,20.3986962 C115.388835,20.3986962 113.378431,18.5926978 113.378431,16.3648858 L113.378431,9.72096281 L113.378431,9.72096281" id="路径" stroke="#16191C" stroke-width="3.1855623" stroke-linecap="round"></path>
            <path d="M122.359155,16.804684 C122.359155,16.0460413 122.359155,15.6966719 122.359155,15.756576 C122.359155,17.0026909 122.359155,19.3110888 122.359155,22.6817695 C122.359155,24.6524488 120.358465,26.25 117.890488,26.25 C115.799406,26.25 114.043786,25.1031277 113.556338,23.5541526" id="形状" stroke="#16191C" stroke-width="3.1855623" stroke-linecap="round"></path>
            <path d="M54.5202256,20.4376881 C54.5202256,20.4376881 51.0391506,20.4376881 44.0770006,20.4376881 C50.2291916,14.8714449 53.305287,11.1220795 53.305287,9.18959187 C53.305287,6.29086038 51.2394647,4.67531976 48.6911438,4.67531976 C46.3535758,4.67531976 44.4219987,6.37595006 44.118494,8.58158068" id="路径" stroke="#16191C" stroke-width="3.1855623" stroke-linecap="round" stroke-linejoin="round"></path>
            <path d="M34.9867532,4.86423502 C36.0563083,4.86423502 37.0246086,5.29775785 37.7255202,5.99866945 C38.4264318,6.69958105 38.8599547,7.6678814 38.8599547,8.73743644 C38.8599547,9.80699148 38.4264318,10.7752918 37.7255202,11.4762034 C37.0246086,12.177115 36.0563083,12.6106379 34.9867532,12.6106379 L28.5760639,12.6106379 L28.5760639,5.56505872 C28.5760639,5.3715316 28.6545063,5.19632568 28.7813305,5.06950153 C28.9081546,4.94267738 29.0833605,4.86423502 29.2768877,4.86423502 Z" id="矩形" stroke="#16191C" stroke-width="3.1855623"></path>
            <path d="M36.000583,12.6183033 C37.0701381,12.6183033 38.0384384,13.0518262 38.73935,13.7527377 C39.4402616,14.4536493 39.8737844,15.4219497 39.8737844,16.4915047 C39.8737844,17.5610598 39.4402616,18.5293601 38.73935,19.2302717 C38.0384384,19.9311833 37.0701381,20.3647062 36.000583,20.3647062 L29.2768877,20.3647062 C29.0833605,20.3647062 28.9081546,20.2862638 28.7813305,20.1594396 C28.6545063,20.0326155 28.5760639,19.8574096 28.5760639,19.6638825 L28.5760639,12.6183033 Z" id="矩形" stroke="#16191C" stroke-width="3.1855623"></path>
        </g>
    </g>
</svg>